<svg xmlns="http://www.w3.org/2000/svg" xmlns:xlink="http://www.w3.org/1999/xlink" contentStyleType="text/css" height="1194px" preserveAspectRatio="none" style="width:1497px;height:1194px;background:#FFFFFF;" version="1.1" viewBox="0 0 1497 1194" width="1497px" zoomAndPan="magnify"><defs/><g><ellipse cx="497.9443" cy="20" fill="#222222" rx="10" ry="10" style="stroke:#222222;stroke-width:1.0;"/><rect fill="#F1F1F1" height="33.9688" rx="12.5" ry="12.5" style="stroke:#181818;stroke-width:0.5;" width="220.3145" x="387.7871" y="50"/><text fill="#000000" font-family="sans-serif" font-size="12" lengthAdjust="spacing" textLength="200.3145" x="397.7871" y="71.1387">Pr&#233;paration des donn&#233;es initiales</text><rect fill="#F1F1F1" height="33.9688" rx="12.5" ry="12.5" style="stroke:#181818;stroke-width:0.5;" width="206.2988" x="394.7949" y="103.9688"/><text fill="#000000" font-family="sans-serif" font-size="12" lengthAdjust="spacing" textLength="186.2988" x="404.7949" y="125.1074">Entra&#238;nement du mod&#232;le initial</text><polygon fill="#F1F1F1" points="449.4299,157.9375,546.4587,157.9375,558.4587,169.9375,546.4587,181.9375,449.4299,181.9375,437.4299,169.9375,449.4299,157.9375" style="stroke:#181818;stroke-width:0.5;"/><text fill="#000000" font-family="sans-serif" font-size="11" lengthAdjust="spacing" textLength="97.0288" x="449.4299" y="173.7456">Mod&#232;le existant ?</text><text fill="#000000" font-family="sans-serif" font-size="11" lengthAdjust="spacing" textLength="21.9302" x="415.4998" y="167.3433">Non</text><text fill="#000000" font-family="sans-serif" font-size="11" lengthAdjust="spacing" textLength="18.686" x="558.4587" y="167.3433">Oui</text><rect fill="#F1F1F1" height="33.9688" rx="12.5" ry="12.5" style="stroke:#181818;stroke-width:0.5;" width="257.0938" x="123.7734" y="191.9375"/><text fill="#000000" font-family="sans-serif" font-size="12" lengthAdjust="spacing" textLength="237.0938" x="133.7734" y="213.0762">Sauvegarde du mod&#232;le dans le registre</text><rect fill="#F1F1F1" height="33.9688" rx="12.5" ry="12.5" style="stroke:#181818;stroke-width:0.5;" width="251.9316" x="126.3545" y="245.9063"/><text fill="#000000" font-family="sans-serif" font-size="12" lengthAdjust="spacing" textLength="231.9316" x="136.3545" y="267.0449">D&#233;ploiement du mod&#232;le en production</text><rect fill="#F1F1F1" height="33.9688" rx="12.5" ry="12.5" style="stroke:#181818;stroke-width:0.5;" width="346.1328" x="570.502" y="191.9375"/><text fill="#000000" font-family="sans-serif" font-size="12" lengthAdjust="spacing" textLength="326.1328" x="580.502" y="213.0762">Comparer le nouveau mod&#232;le avec le mod&#232;le existant</text><polygon fill="#F1F1F1" points="667.9783,245.9063,819.1584,245.9063,831.1584,257.9063,819.1584,269.9063,667.9783,269.9063,655.9783,257.9063,667.9783,245.9063" style="stroke:#181818;stroke-width:0.5;"/><text fill="#000000" font-family="sans-serif" font-size="11" lengthAdjust="spacing" textLength="151.1802" x="667.9783" y="261.7144">Nouveau mod&#232;le meilleur ?</text><text fill="#000000" font-family="sans-serif" font-size="11" lengthAdjust="spacing" textLength="18.686" x="637.2922" y="255.312">Oui</text><text fill="#000000" font-family="sans-serif" font-size="11" lengthAdjust="spacing" textLength="21.9302" x="831.1584" y="255.312">Non</text><rect fill="#F1F1F1" height="33.9688" rx="12.5" ry="12.5" style="stroke:#181818;stroke-width:0.5;" width="257.0938" x="436.1914" y="279.9063"/><text fill="#000000" font-family="sans-serif" font-size="12" lengthAdjust="spacing" textLength="237.0938" x="446.1914" y="301.0449">Sauvegarde du mod&#232;le dans le registre</text><rect fill="#F1F1F1" height="33.9688" rx="12.5" ry="12.5" style="stroke:#181818;stroke-width:0.5;" width="307.7422" x="410.8672" y="333.875"/><text fill="#000000" font-family="sans-serif" font-size="12" lengthAdjust="spacing" textLength="287.7422" x="420.8672" y="355.0137">D&#233;ploiement du nouveau mod&#232;le en production</text><rect fill="#F1F1F1" height="33.9688" rx="12.5" ry="12.5" style="stroke:#181818;stroke-width:0.5;" width="367.5781" x="738.6094" y="279.9063"/><text fill="#000000" font-family="sans-serif" font-size="12" lengthAdjust="spacing" textLength="347.5781" x="748.6094" y="301.0449">Sauvegarde du mod&#232;le dans le registre sans d&#233;ploiement</text><polygon fill="#F1F1F1" points="743.5684,373.8438,755.5684,385.8438,743.5684,397.8438,731.5684,385.8438,743.5684,373.8438" style="stroke:#181818;stroke-width:0.5;"/><polygon fill="#F1F1F1" points="497.9443,403.8438,509.9443,415.8438,497.9443,427.8438,485.9443,415.8438,497.9443,403.8438" style="stroke:#181818;stroke-width:0.5;"/><rect fill="#F1F1F1" height="33.9688" rx="12.5" ry="12.5" style="stroke:#181818;stroke-width:0.5;" width="159.6055" x="418.1416" y="447.8438"/><text fill="#000000" font-family="sans-serif" font-size="12" lengthAdjust="spacing" textLength="139.6055" x="428.1416" y="468.9824">Processus op&#233;rationnel</text><rect fill="#F1F1F1" height="33.9688" rx="12.5" ry="12.5" style="stroke:#181818;stroke-width:0.5;" width="211.0098" x="392.4395" y="562.6172"/><text fill="#000000" font-family="sans-serif" font-size="12" lengthAdjust="spacing" textLength="191.0098" x="402.4395" y="583.7559">L'utilisateur effectue une action</text><polygon fill="#F1F1F1" points="424.0703,616.5859,571.8184,616.5859,583.8184,628.5859,571.8184,640.5859,424.0703,640.5859,412.0703,628.5859,424.0703,616.5859" style="stroke:#181818;stroke-width:0.5;"/><text fill="#000000" font-family="sans-serif" font-size="11" lengthAdjust="spacing" textLength="147.748" x="424.0703" y="632.394">Action == Authentification</text><text fill="#000000" font-family="sans-serif" font-size="11" lengthAdjust="spacing" textLength="18.686" x="393.3843" y="625.9917">Oui</text><text fill="#000000" font-family="sans-serif" font-size="11" lengthAdjust="spacing" textLength="21.9302" x="583.8184" y="625.9917">Non</text><rect fill="#F1F1F1" height="33.9688" rx="12.5" ry="12.5" style="stroke:#181818;stroke-width:0.5;" width="228.4766" x="65.2119" y="650.5859"/><text fill="#000000" font-family="sans-serif" font-size="12" lengthAdjust="spacing" textLength="208.4766" x="75.2119" y="671.7246">L'utilisateur tente de s'authentifier</text><rect fill="#F1F1F1" height="33.9688" rx="12.5" ry="12.5" style="stroke:#181818;stroke-width:0.5;" width="268.3555" x="45.2725" y="719.5547"/><text fill="#000000" font-family="sans-serif" font-size="12" lengthAdjust="spacing" textLength="248.3555" x="55.2725" y="740.6934">Le mod&#232;le pr&#233;dit l'identit&#233; de l'utilisateur</text><rect fill="#F1F1F1" height="33.9688" rx="12.5" ry="12.5" style="stroke:#181818;stroke-width:0.5;" width="268.9004" x="45" y="788.5234"/><text fill="#000000" font-family="sans-serif" font-size="12" lengthAdjust="spacing" textLength="248.9004" x="55" y="809.6621">Retourner le r&#233;sultat de l'authentification</text><polygon fill="#F1F1F1" points="737.7734,650.5859,895.1035,650.5859,907.1035,662.5859,895.1035,674.5859,737.7734,674.5859,725.7734,662.5859,737.7734,650.5859" style="stroke:#181818;stroke-width:0.5;"/><text fill="#000000" font-family="sans-serif" font-size="11" lengthAdjust="spacing" textLength="157.3301" x="737.7734" y="666.394">Action == Nouvel utilisateur</text><text fill="#000000" font-family="sans-serif" font-size="11" lengthAdjust="spacing" textLength="18.686" x="707.0874" y="659.9917">Oui</text><text fill="#000000" font-family="sans-serif" font-size="11" lengthAdjust="spacing" textLength="186.4951" x="907.1035" y="659.9917">Action == Suppression utilisateur</text><rect fill="#F1F1F1" height="33.9688" rx="12.5" ry="12.5" style="stroke:#181818;stroke-width:0.5;" width="276.1074" x="399.9717" y="684.5859"/><text fill="#000000" font-family="sans-serif" font-size="12" lengthAdjust="spacing" textLength="256.1074" x="409.9717" y="705.7246">Collecte des donn&#233;es du nouvel utilisateur</text><rect fill="#F1F1F1" height="33.9688" rx="12.5" ry="12.5" style="stroke:#181818;stroke-width:0.5;" width="322.9297" x="376.5605" y="753.5547"/><text fill="#000000" font-family="sans-serif" font-size="12" lengthAdjust="spacing" textLength="302.9297" x="386.5605" y="774.6934">Mise &#224; jour du dataset avec les nouvelles donn&#233;es</text><rect fill="#F1F1F1" height="33.9688" rx="12.5" ry="12.5" style="stroke:#181818;stroke-width:0.5;" width="185.0059" x="445.5225" y="822.5234"/><text fill="#000000" font-family="sans-serif" font-size="12" lengthAdjust="spacing" textLength="165.0059" x="455.5225" y="843.6621">R&#233;entra&#238;nement du mod&#232;le</text><rect fill="#F1F1F1" height="33.9688" rx="12.5" ry="12.5" style="stroke:#181818;stroke-width:0.5;" width="312.9043" x="381.5732" y="879.1055"/><text fill="#000000" font-family="sans-serif" font-size="12" lengthAdjust="spacing" textLength="292.9043" x="391.5732" y="900.2441">Sauvegarde du nouveau mod&#232;le dans le registre</text><rect fill="#F1F1F1" height="33.9688" rx="12.5" ry="12.5" style="stroke:#181818;stroke-width:0.5;" width="388.25" x="343.9004" y="948.0742"/><text fill="#000000" font-family="sans-serif" font-size="12" lengthAdjust="spacing" textLength="368.25" x="353.9004" y="969.2129">D&#233;ploiement automatique du nouveau mod&#232;le en production</text><rect fill="#F1F1F1" height="33.9688" rx="12.5" ry="12.5" style="stroke:#181818;stroke-width:0.5;" width="331.6543" x="929.0244" y="684.5859"/><text fill="#000000" font-family="sans-serif" font-size="12" lengthAdjust="spacing" textLength="311.6543" x="939.0244" y="705.7246">Suppression des donn&#233;es de l'utilisateur du dataset</text><rect fill="#F1F1F1" height="33.9688" rx="12.5" ry="12.5" style="stroke:#181818;stroke-width:0.5;" width="185.0059" x="1002.3486" y="753.5547"/><text fill="#000000" font-family="sans-serif" font-size="12" lengthAdjust="spacing" textLength="165.0059" x="1012.3486" y="774.6934">R&#233;entra&#238;nement du mod&#232;le</text><rect fill="#F1F1F1" height="33.9688" rx="12.5" ry="12.5" style="stroke:#181818;stroke-width:0.5;" width="346.1328" x="921.7852" y="822.5234"/><text fill="#000000" font-family="sans-serif" font-size="12" lengthAdjust="spacing" textLength="326.1328" x="931.7852" y="843.6621">Comparer le nouveau mod&#232;le avec le mod&#232;le existant</text><polygon fill="#F1F1F1" points="1019.2615,879.1055,1170.4417,879.1055,1182.4417,891.1055,1170.4417,903.1055,1019.2615,903.1055,1007.2615,891.1055,1019.2615,879.1055" style="stroke:#181818;stroke-width:0.5;"/><text fill="#000000" font-family="sans-serif" font-size="11" lengthAdjust="spacing" textLength="151.1802" x="1019.2615" y="894.9136">Nouveau mod&#232;le meilleur ?</text><text fill="#000000" font-family="sans-serif" font-size="11" lengthAdjust="spacing" textLength="18.686" x="988.5754" y="888.5112">Oui</text><text fill="#000000" font-family="sans-serif" font-size="11" lengthAdjust="spacing" textLength="21.9302" x="1182.4417" y="888.5112">Non</text><rect fill="#F1F1F1" height="33.9688" rx="12.5" ry="12.5" style="stroke:#181818;stroke-width:0.5;" width="257.0938" x="787.4746" y="913.1055"/><text fill="#000000" font-family="sans-serif" font-size="12" lengthAdjust="spacing" textLength="237.0938" x="797.4746" y="934.2441">Sauvegarde du mod&#232;le dans le registre</text><rect fill="#F1F1F1" height="33.9688" rx="12.5" ry="12.5" style="stroke:#181818;stroke-width:0.5;" width="307.7422" x="762.1504" y="982.0742"/><text fill="#000000" font-family="sans-serif" font-size="12" lengthAdjust="spacing" textLength="287.7422" x="772.1504" y="1003.2129">D&#233;ploiement du nouveau mod&#232;le en production</text><rect fill="#F1F1F1" height="33.9688" rx="12.5" ry="12.5" style="stroke:#181818;stroke-width:0.5;" width="367.5781" x="1089.8926" y="913.1055"/><text fill="#000000" font-family="sans-serif" font-size="12" lengthAdjust="spacing" textLength="347.5781" x="1099.8926" y="934.2441">Sauvegarde du mod&#232;le dans le registre sans d&#233;ploiement</text><polygon fill="#F1F1F1" points="1094.8516,1022.043,1106.8516,1034.043,1094.8516,1046.043,1082.8516,1034.043,1094.8516,1022.043" style="stroke:#181818;stroke-width:0.5;"/><polygon fill="#F1F1F1" points="816.4385,1052.043,828.4385,1064.043,816.4385,1076.043,804.4385,1064.043,816.4385,1052.043" style="stroke:#181818;stroke-width:0.5;"/><polygon fill="#F1F1F1" points="497.9443,1082.043,509.9443,1094.043,497.9443,1106.043,485.9443,1094.043,497.9443,1082.043" style="stroke:#181818;stroke-width:0.5;"/><rect fill="#F1F1F1" height="33.9688" rx="12.5" ry="12.5" style="stroke:#181818;stroke-width:0.5;" width="222.8809" x="386.5039" y="1126.043"/><text fill="#000000" font-family="sans-serif" font-size="12" lengthAdjust="spacing" textLength="202.8809" x="396.5039" y="1147.1816">Retour au processus op&#233;rationnel</text><polygon fill="#F1F1F1" points="438.6072,501.8125,557.2815,501.8125,569.2815,513.8125,557.2815,525.8125,438.6072,525.8125,426.6072,513.8125,438.6072,501.8125" style="stroke:#181818;stroke-width:0.5;"/><text fill="#000000" font-family="sans-serif" font-size="11" lengthAdjust="spacing" textLength="21.8442" x="501.9443" y="536.0229">Vrai</text><text fill="#000000" font-family="sans-serif" font-size="11" lengthAdjust="spacing" textLength="118.6743" x="438.6072" y="517.6206">Interaction utilisateur</text><ellipse cx="24" cy="560.8125" fill="none" rx="11" ry="11" style="stroke:#222222;stroke-width:1.0;"/><ellipse cx="24" cy="560.8125" fill="#222222" rx="6" ry="6" style="stroke:#222222;stroke-width:1.0;"/><line style="stroke:#181818;stroke-width:1.0;" x1="497.9443" x2="497.9443" y1="30" y2="50"/><polygon fill="#181818" points="493.9443,40,497.9443,50,501.9443,40,497.9443,44" style="stroke:#181818;stroke-width:1.0;"/><line style="stroke:#181818;stroke-width:1.0;" x1="497.9443" x2="497.9443" y1="83.9688" y2="103.9688"/><polygon fill="#181818" points="493.9443,93.9688,497.9443,103.9688,501.9443,93.9688,497.9443,97.9688" style="stroke:#181818;stroke-width:1.0;"/><line style="stroke:#181818;stroke-width:1.0;" x1="252.3203" x2="252.3203" y1="225.9063" y2="245.9063"/><polygon fill="#181818" points="248.3203,235.9063,252.3203,245.9063,256.3203,235.9063,252.3203,239.9063" style="stroke:#181818;stroke-width:1.0;"/><line style="stroke:#181818;stroke-width:1.0;" x1="564.7383" x2="564.7383" y1="313.875" y2="333.875"/><polygon fill="#181818" points="560.7383,323.875,564.7383,333.875,568.7383,323.875,564.7383,327.875" style="stroke:#181818;stroke-width:1.0;"/><line style="stroke:#181818;stroke-width:1.0;" x1="655.9783" x2="564.7383" y1="257.9063" y2="257.9063"/><line style="stroke:#181818;stroke-width:1.0;" x1="564.7383" x2="564.7383" y1="257.9063" y2="279.9063"/><polygon fill="#181818" points="560.7383,269.9063,564.7383,279.9063,568.7383,269.9063,564.7383,273.9063" style="stroke:#181818;stroke-width:1.0;"/><line style="stroke:#181818;stroke-width:1.0;" x1="831.1584" x2="922.3984" y1="257.9063" y2="257.9063"/><line style="stroke:#181818;stroke-width:1.0;" x1="922.3984" x2="922.3984" y1="257.9063" y2="279.9063"/><polygon fill="#181818" points="918.3984,269.9063,922.3984,279.9063,926.3984,269.9063,922.3984,273.9063" style="stroke:#181818;stroke-width:1.0;"/><line style="stroke:#181818;stroke-width:1.0;" x1="564.7383" x2="564.7383" y1="367.8438" y2="385.8438"/><line style="stroke:#181818;stroke-width:1.0;" x1="564.7383" x2="731.5684" y1="385.8438" y2="385.8438"/><polygon fill="#181818" points="721.5684,381.8438,731.5684,385.8438,721.5684,389.8438,725.5684,385.8438" style="stroke:#181818;stroke-width:1.0;"/><line style="stroke:#181818;stroke-width:1.0;" x1="922.3984" x2="922.3984" y1="313.875" y2="385.8438"/><line style="stroke:#181818;stroke-width:1.0;" x1="922.3984" x2="755.5684" y1="385.8438" y2="385.8438"/><polygon fill="#181818" points="765.5684,381.8438,755.5684,385.8438,765.5684,389.8438,761.5684,385.8438" style="stroke:#181818;stroke-width:1.0;"/><line style="stroke:#181818;stroke-width:1.0;" x1="743.5684" x2="743.5684" y1="225.9063" y2="245.9063"/><polygon fill="#181818" points="739.5684,235.9063,743.5684,245.9063,747.5684,235.9063,743.5684,239.9063" style="stroke:#181818;stroke-width:1.0;"/><line style="stroke:#181818;stroke-width:1.0;" x1="437.4299" x2="252.3203" y1="169.9375" y2="169.9375"/><line style="stroke:#181818;stroke-width:1.0;" x1="252.3203" x2="252.3203" y1="169.9375" y2="191.9375"/><polygon fill="#181818" points="248.3203,181.9375,252.3203,191.9375,256.3203,181.9375,252.3203,185.9375" style="stroke:#181818;stroke-width:1.0;"/><line style="stroke:#181818;stroke-width:1.0;" x1="558.4587" x2="743.5684" y1="169.9375" y2="169.9375"/><line style="stroke:#181818;stroke-width:1.0;" x1="743.5684" x2="743.5684" y1="169.9375" y2="191.9375"/><polygon fill="#181818" points="739.5684,181.9375,743.5684,191.9375,747.5684,181.9375,743.5684,185.9375" style="stroke:#181818;stroke-width:1.0;"/><line style="stroke:#181818;stroke-width:1.0;" x1="252.3203" x2="252.3203" y1="279.875" y2="415.8438"/><line style="stroke:#181818;stroke-width:1.0;" x1="252.3203" x2="485.9443" y1="415.8438" y2="415.8438"/><polygon fill="#181818" points="475.9443,411.8438,485.9443,415.8438,475.9443,419.8438,479.9443,415.8438" style="stroke:#181818;stroke-width:1.0;"/><line style="stroke:#181818;stroke-width:1.0;" x1="743.5684" x2="743.5684" y1="397.8438" y2="415.8438"/><line style="stroke:#181818;stroke-width:1.0;" x1="743.5684" x2="509.9443" y1="415.8438" y2="415.8438"/><polygon fill="#181818" points="519.9443,411.8438,509.9443,415.8438,519.9443,419.8438,515.9443,415.8438" style="stroke:#181818;stroke-width:1.0;"/><line style="stroke:#181818;stroke-width:1.0;" x1="497.9443" x2="497.9443" y1="137.9375" y2="157.9375"/><polygon fill="#181818" points="493.9443,147.9375,497.9443,157.9375,501.9443,147.9375,497.9443,151.9375" style="stroke:#181818;stroke-width:1.0;"/><line style="stroke:#181818;stroke-width:1.0;" x1="497.9443" x2="497.9443" y1="427.8438" y2="447.8438"/><polygon fill="#181818" points="493.9443,437.8438,497.9443,447.8438,501.9443,437.8438,497.9443,441.8438" style="stroke:#181818;stroke-width:1.0;"/><line style="stroke:#181818;stroke-width:1.0;" x1="179.4502" x2="179.4502" y1="684.5547" y2="719.5547"/><polygon fill="#181818" points="175.4502,709.5547,179.4502,719.5547,183.4502,709.5547,179.4502,713.5547" style="stroke:#181818;stroke-width:1.0;"/><line style="stroke:#181818;stroke-width:1.0;" x1="179.4502" x2="179.4502" y1="753.5234" y2="788.5234"/><polygon fill="#181818" points="175.4502,778.5234,179.4502,788.5234,183.4502,778.5234,179.4502,782.5234" style="stroke:#181818;stroke-width:1.0;"/><line style="stroke:#181818;stroke-width:1.0;" x1="538.0254" x2="538.0254" y1="718.5547" y2="753.5547"/><polygon fill="#181818" points="534.0254,743.5547,538.0254,753.5547,542.0254,743.5547,538.0254,747.5547" style="stroke:#181818;stroke-width:1.0;"/><line style="stroke:#181818;stroke-width:1.0;" x1="538.0254" x2="538.0254" y1="787.5234" y2="822.5234"/><polygon fill="#181818" points="534.0254,812.5234,538.0254,822.5234,542.0254,812.5234,538.0254,816.5234" style="stroke:#181818;stroke-width:1.0;"/><line style="stroke:#181818;stroke-width:1.0;" x1="538.0254" x2="538.0254" y1="856.4922" y2="879.1055"/><polygon fill="#181818" points="534.0254,869.1055,538.0254,879.1055,542.0254,869.1055,538.0254,873.1055" style="stroke:#181818;stroke-width:1.0;"/><line style="stroke:#181818;stroke-width:1.0;" x1="538.0254" x2="538.0254" y1="913.0742" y2="948.0742"/><polygon fill="#181818" points="534.0254,938.0742,538.0254,948.0742,542.0254,938.0742,538.0254,942.0742" style="stroke:#181818;stroke-width:1.0;"/><line style="stroke:#181818;stroke-width:1.0;" x1="1094.8516" x2="1094.8516" y1="718.5547" y2="753.5547"/><polygon fill="#181818" points="1090.8516,743.5547,1094.8516,753.5547,1098.8516,743.5547,1094.8516,747.5547" style="stroke:#181818;stroke-width:1.0;"/><line style="stroke:#181818;stroke-width:1.0;" x1="1094.8516" x2="1094.8516" y1="787.5234" y2="822.5234"/><polygon fill="#181818" points="1090.8516,812.5234,1094.8516,822.5234,1098.8516,812.5234,1094.8516,816.5234" style="stroke:#181818;stroke-width:1.0;"/><line style="stroke:#181818;stroke-width:1.0;" x1="916.0215" x2="916.0215" y1="947.0742" y2="982.0742"/><polygon fill="#181818" points="912.0215,972.0742,916.0215,982.0742,920.0215,972.0742,916.0215,976.0742" style="stroke:#181818;stroke-width:1.0;"/><line style="stroke:#181818;stroke-width:1.0;" x1="1007.2615" x2="916.0215" y1="891.1055" y2="891.1055"/><line style="stroke:#181818;stroke-width:1.0;" x1="916.0215" x2="916.0215" y1="891.1055" y2="913.1055"/><polygon fill="#181818" points="912.0215,903.1055,916.0215,913.1055,920.0215,903.1055,916.0215,907.1055" style="stroke:#181818;stroke-width:1.0;"/><line style="stroke:#181818;stroke-width:1.0;" x1="1182.4417" x2="1273.6816" y1="891.1055" y2="891.1055"/><line style="stroke:#181818;stroke-width:1.0;" x1="1273.6816" x2="1273.6816" y1="891.1055" y2="913.1055"/><polygon fill="#181818" points="1269.6816,903.1055,1273.6816,913.1055,1277.6816,903.1055,1273.6816,907.1055" style="stroke:#181818;stroke-width:1.0;"/><line style="stroke:#181818;stroke-width:1.0;" x1="916.0215" x2="916.0215" y1="1016.043" y2="1034.043"/><line style="stroke:#181818;stroke-width:1.0;" x1="916.0215" x2="1082.8516" y1="1034.043" y2="1034.043"/><polygon fill="#181818" points="1072.8516,1030.043,1082.8516,1034.043,1072.8516,1038.043,1076.8516,1034.043" style="stroke:#181818;stroke-width:1.0;"/><line style="stroke:#181818;stroke-width:1.0;" x1="1273.6816" x2="1273.6816" y1="947.0742" y2="1034.043"/><line style="stroke:#181818;stroke-width:1.0;" x1="1273.6816" x2="1106.8516" y1="1034.043" y2="1034.043"/><polygon fill="#181818" points="1116.8516,1030.043,1106.8516,1034.043,1116.8516,1038.043,1112.8516,1034.043" style="stroke:#181818;stroke-width:1.0;"/><line style="stroke:#181818;stroke-width:1.0;" x1="1094.8516" x2="1094.8516" y1="856.4922" y2="879.1055"/><polygon fill="#181818" points="1090.8516,869.1055,1094.8516,879.1055,1098.8516,869.1055,1094.8516,873.1055" style="stroke:#181818;stroke-width:1.0;"/><line style="stroke:#181818;stroke-width:1.0;" x1="725.7734" x2="538.0254" y1="662.5859" y2="662.5859"/><line style="stroke:#181818;stroke-width:1.0;" x1="538.0254" x2="538.0254" y1="662.5859" y2="684.5859"/><polygon fill="#181818" points="534.0254,674.5859,538.0254,684.5859,542.0254,674.5859,538.0254,678.5859" style="stroke:#181818;stroke-width:1.0;"/><line style="stroke:#181818;stroke-width:1.0;" x1="907.1035" x2="1094.8516" y1="662.5859" y2="662.5859"/><line style="stroke:#181818;stroke-width:1.0;" x1="1094.8516" x2="1094.8516" y1="662.5859" y2="684.5859"/><polygon fill="#181818" points="1090.8516,674.5859,1094.8516,684.5859,1098.8516,674.5859,1094.8516,678.5859" style="stroke:#181818;stroke-width:1.0;"/><line style="stroke:#181818;stroke-width:1.0;" x1="538.0254" x2="538.0254" y1="982.043" y2="1064.043"/><line style="stroke:#181818;stroke-width:1.0;" x1="538.0254" x2="804.4385" y1="1064.043" y2="1064.043"/><polygon fill="#181818" points="794.4385,1060.043,804.4385,1064.043,794.4385,1068.043,798.4385,1064.043" style="stroke:#181818;stroke-width:1.0;"/><line style="stroke:#181818;stroke-width:1.0;" x1="1094.8516" x2="1094.8516" y1="1046.043" y2="1064.043"/><line style="stroke:#181818;stroke-width:1.0;" x1="1094.8516" x2="828.4385" y1="1064.043" y2="1064.043"/><polygon fill="#181818" points="838.4385,1060.043,828.4385,1064.043,838.4385,1068.043,834.4385,1064.043" style="stroke:#181818;stroke-width:1.0;"/><line style="stroke:#181818;stroke-width:1.0;" x1="412.0703" x2="179.4502" y1="628.5859" y2="628.5859"/><line style="stroke:#181818;stroke-width:1.0;" x1="179.4502" x2="179.4502" y1="628.5859" y2="650.5859"/><polygon fill="#181818" points="175.4502,640.5859,179.4502,650.5859,183.4502,640.5859,179.4502,644.5859" style="stroke:#181818;stroke-width:1.0;"/><line style="stroke:#181818;stroke-width:1.0;" x1="583.8184" x2="816.4385" y1="628.5859" y2="628.5859"/><line style="stroke:#181818;stroke-width:1.0;" x1="816.4385" x2="816.4385" y1="628.5859" y2="650.5859"/><polygon fill="#181818" points="812.4385,640.5859,816.4385,650.5859,820.4385,640.5859,816.4385,644.5859" style="stroke:#181818;stroke-width:1.0;"/><line style="stroke:#181818;stroke-width:1.0;" x1="179.4502" x2="179.4502" y1="822.4922" y2="1094.043"/><line style="stroke:#181818;stroke-width:1.0;" x1="179.4502" x2="485.9443" y1="1094.043" y2="1094.043"/><polygon fill="#181818" points="475.9443,1090.043,485.9443,1094.043,475.9443,1098.043,479.9443,1094.043" style="stroke:#181818;stroke-width:1.0;"/><line style="stroke:#181818;stroke-width:1.0;" x1="816.4385" x2="816.4385" y1="1076.043" y2="1094.043"/><line style="stroke:#181818;stroke-width:1.0;" x1="816.4385" x2="509.9443" y1="1094.043" y2="1094.043"/><polygon fill="#181818" points="519.9443,1090.043,509.9443,1094.043,519.9443,1098.043,515.9443,1094.043" style="stroke:#181818;stroke-width:1.0;"/><line style="stroke:#181818;stroke-width:1.0;" x1="497.9443" x2="497.9443" y1="596.5859" y2="616.5859"/><polygon fill="#181818" points="493.9443,606.5859,497.9443,616.5859,501.9443,606.5859,497.9443,610.5859" style="stroke:#181818;stroke-width:1.0;"/><line style="stroke:#181818;stroke-width:1.0;" x1="497.9443" x2="497.9443" y1="1106.043" y2="1126.043"/><polygon fill="#181818" points="493.9443,1116.043,497.9443,1126.043,501.9443,1116.043,497.9443,1120.043" style="stroke:#181818;stroke-width:1.0;"/><line style="stroke:#181818;stroke-width:1.0;" x1="497.9443" x2="497.9443" y1="525.8125" y2="562.6172"/><polygon fill="#181818" points="493.9443,552.6172,497.9443,562.6172,501.9443,552.6172,497.9443,556.6172" style="stroke:#181818;stroke-width:1.0;"/><line style="stroke:#181818;stroke-width:1.0;" x1="497.9443" x2="497.9443" y1="1160.0117" y2="1170.0117"/><line style="stroke:#181818;stroke-width:1.0;" x1="497.9443" x2="1471.4707" y1="1170.0117" y2="1170.0117"/><polygon fill="#181818" points="1467.4707,859.1055,1471.4707,849.1055,1475.4707,859.1055,1471.4707,855.1055" style="stroke:#181818;stroke-width:1.0;"/><line style="stroke:#181818;stroke-width:1.0;" x1="1471.4707" x2="1471.4707" y1="513.8125" y2="1170.0117"/><line style="stroke:#181818;stroke-width:1.0;" x1="1471.4707" x2="569.2815" y1="513.8125" y2="513.8125"/><polygon fill="#181818" points="579.2815,509.8125,569.2815,513.8125,579.2815,517.8125,575.2815,513.8125" style="stroke:#181818;stroke-width:1.0;"/><line style="stroke:#181818;stroke-width:1.0;" x1="426.6072" x2="24" y1="513.8125" y2="513.8125"/><line style="stroke:#181818;stroke-width:1.0;" x1="24" x2="24" y1="513.8125" y2="549.8125"/><polygon fill="#181818" points="20,539.8125,24,549.8125,28,539.8125,24,543.8125" style="stroke:#181818;stroke-width:1.0;"/><line style="stroke:#181818;stroke-width:1.0;" x1="497.9443" x2="497.9443" y1="481.8125" y2="501.8125"/><polygon fill="#181818" points="493.9443,491.8125,497.9443,501.8125,501.9443,491.8125,497.9443,495.8125" style="stroke:#181818;stroke-width:1.0;"/><!--SRC=[hLJ1Rjim3BtxAtYByminYg7OTXZGTaCBx2vOTAj1bZo9wlOvEowN_OH_R9JjsBAI04ss79n49X_vdXxfIJWgYjqNr-yxuGGfQq2Y1scDwVVyGnb5IcZqLR7xQCY9_e_15Ws13D1QsV_MU0YgYa8rKDvFf_XJUH8S-MuBz886oWThjWNmP_SamYi-2oSnnP72UE1lXy-Swh0QWpzmSzggex8CsJahGntRhWhK7g7y7DHKuxrjcHEwY6WirnDBgdZ5EfwtMQzZnSZY8SjeKMcDmIrivaeNCph9AcynOnTpHeQpYXVK1HyFP59oGZHIDSNuZ3QmDNeVFDYktuzsC1ZlzSUBOhJoao5qOkW80Ycjl23MP0lAG_dLYOFqTvlaBM3JO4q18HXMVk8p2tqxmjtSm6s8mf9gL3sKFYtq6fiuWUaomOsOqz4bEjyjjzonpQKYq1ibOoJr-vYgKyGayn791cT61t6g3ve4ZHaYw_Ni1Qqf3gxIQ-rEa9pyouQh1tR9G1wSiWAfrfdtYjleVy4tRZycI4728nrSxoS4dU1c28zyTcRQfwixOy3SnUS7u7W8M5FRifhV0xvn81RD5ucVGjSvTd7kqQph96gjR-Q7HB_hDRf-5QKskd0bNRsQ_cL5hMzbDGd_QMND5OQbTVnlMcR91BEnOf-dLnk73ykjA3pPxYy0]--></g></svg>