<svg xmlns="http://www.w3.org/2000/svg" xmlns:xlink="http://www.w3.org/1999/xlink" contentStyleType="text/css" height="452px" preserveAspectRatio="none" style="width:879px;height:452px;background:#FFFFFF;" version="1.1" viewBox="0 0 879 452" width="879px" zoomAndPan="magnify"><title>Sequence Diagram - Authenticate</title><defs/><g><text fill="#000000" font-family="sans-serif" font-size="14" font-weight="bold" lengthAdjust="spacing" textLength="266.4307" x="305.6133" y="27.9951">Sequence Diagram - Authenticate</text><line style="stroke:#181818;stroke-width:0.5;stroke-dasharray:5.0,5.0;" x1="23" x2="23" y1="118.5938" y2="371.6563"/><line style="stroke:#181818;stroke-width:0.5;stroke-dasharray:5.0,5.0;" x1="317.9932" x2="317.9932" y1="118.5938" y2="371.6563"/><line style="stroke:#181818;stroke-width:0.5;stroke-dasharray:5.0,5.0;" x1="467.375" x2="467.375" y1="118.5938" y2="371.6563"/><line style="stroke:#181818;stroke-width:0.5;stroke-dasharray:5.0,5.0;" x1="700.835" x2="700.835" y1="118.5938" y2="371.6563"/><line style="stroke:#181818;stroke-width:0.5;stroke-dasharray:5.0,5.0;" x1="819.5605" x2="819.5605" y1="118.5938" y2="371.6563"/><text fill="#000000" font-family="sans-serif" font-size="14" lengthAdjust="spacing" textLength="31.9102" x="5" y="115.292">User</text><ellipse cx="23.9551" cy="50.7969" fill="#E2E2F0" rx="8" ry="8" style="stroke:#181818;stroke-width:0.5;"/><path d="M23.9551,58.7969 L23.9551,85.7969 M10.9551,66.7969 L36.9551,66.7969 M23.9551,85.7969 L10.9551,100.7969 M23.9551,85.7969 L36.9551,100.7969 " fill="none" style="stroke:#181818;stroke-width:0.5;"/><text fill="#000000" font-family="sans-serif" font-size="14" lengthAdjust="spacing" textLength="31.9102" x="5" y="383.6514">User</text><ellipse cx="23.9551" cy="395.4531" fill="#E2E2F0" rx="8" ry="8" style="stroke:#181818;stroke-width:0.5;"/><path d="M23.9551,403.4531 L23.9551,430.4531 M10.9551,411.4531 L36.9551,411.4531 M23.9551,430.4531 L10.9551,445.4531 M23.9551,430.4531 L36.9551,445.4531 " fill="none" style="stroke:#181818;stroke-width:0.5;"/><rect fill="#E2E2F0" height="30.2969" rx="2.5" ry="2.5" style="stroke:#181818;stroke-width:0.5;" width="92.2236" x="271.9932" y="87.2969"/><text fill="#000000" font-family="sans-serif" font-size="14" lengthAdjust="spacing" textLength="78.2236" x="278.9932" y="107.292">Application</text><rect fill="#E2E2F0" height="30.2969" rx="2.5" ry="2.5" style="stroke:#181818;stroke-width:0.5;" width="92.2236" x="271.9932" y="370.6563"/><text fill="#000000" font-family="sans-serif" font-size="14" lengthAdjust="spacing" textLength="78.2236" x="278.9932" y="390.6514">Application</text><rect fill="#E2E2F0" height="30.2969" rx="2.5" ry="2.5" style="stroke:#181818;stroke-width:0.5;" width="127.0049" x="404.375" y="87.2969"/><text fill="#000000" font-family="sans-serif" font-size="14" lengthAdjust="spacing" textLength="113.0049" x="411.375" y="107.292">Deployed Model</text><rect fill="#E2E2F0" height="30.2969" rx="2.5" ry="2.5" style="stroke:#181818;stroke-width:0.5;" width="127.0049" x="404.375" y="370.6563"/><text fill="#000000" font-family="sans-serif" font-size="14" lengthAdjust="spacing" textLength="113.0049" x="411.375" y="390.6514">Deployed Model</text><rect fill="#E2E2F0" height="30.2969" rx="2.5" ry="2.5" style="stroke:#181818;stroke-width:0.5;" width="108.7256" x="646.835" y="87.2969"/><text fill="#000000" font-family="sans-serif" font-size="14" lengthAdjust="spacing" textLength="94.7256" x="653.835" y="107.292">Characterizer</text><rect fill="#E2E2F0" height="30.2969" rx="2.5" ry="2.5" style="stroke:#181818;stroke-width:0.5;" width="108.7256" x="646.835" y="370.6563"/><text fill="#000000" font-family="sans-serif" font-size="14" lengthAdjust="spacing" textLength="94.7256" x="653.835" y="390.6514">Characterizer</text><rect fill="#E2E2F0" height="30.2969" rx="2.5" ry="2.5" style="stroke:#181818;stroke-width:0.5;" width="108.0967" x="765.5605" y="87.2969"/><text fill="#000000" font-family="sans-serif" font-size="14" lengthAdjust="spacing" textLength="94.0967" x="772.5605" y="107.292">Discriminator</text><rect fill="#E2E2F0" height="30.2969" rx="2.5" ry="2.5" style="stroke:#181818;stroke-width:0.5;" width="108.0967" x="765.5605" y="370.6563"/><text fill="#000000" font-family="sans-serif" font-size="14" lengthAdjust="spacing" textLength="94.0967" x="772.5605" y="390.6514">Discriminator</text><polygon fill="#181818" points="306.105,145.7266,316.105,149.7266,306.105,153.7266,310.105,149.7266" style="stroke:#181818;stroke-width:1.0;"/><line style="stroke:#181818;stroke-width:1.0;" x1="23.9551" x2="312.105" y1="149.7266" y2="149.7266"/><text fill="#000000" font-family="sans-serif" font-size="13" lengthAdjust="spacing" textLength="270.1499" x="30.9551" y="144.6606">submitAuthenticationRequest(videoData)</text><polygon fill="#181818" points="455.8774,174.8594,465.8774,178.8594,455.8774,182.8594,459.8774,178.8594" style="stroke:#181818;stroke-width:1.0;"/><line style="stroke:#181818;stroke-width:1.0;" x1="318.105" x2="461.8774" y1="178.8594" y2="178.8594"/><text fill="#000000" font-family="sans-serif" font-size="13" lengthAdjust="spacing" textLength="125.7725" x="325.105" y="173.7935">identify(videoData)</text><polygon fill="#181818" points="689.1978,203.9922,699.1978,207.9922,689.1978,211.9922,693.1978,207.9922" style="stroke:#181818;stroke-width:1.0;"/><line style="stroke:#181818;stroke-width:1.0;" x1="467.8774" x2="695.1978" y1="207.9922" y2="207.9922"/><text fill="#000000" font-family="sans-serif" font-size="13" lengthAdjust="spacing" textLength="209.3203" x="474.8774" y="202.9263">generateEmbedding(videoData)</text><polygon fill="#181818" points="478.8774,233.125,468.8774,237.125,478.8774,241.125,474.8774,237.125" style="stroke:#181818;stroke-width:1.0;"/><line style="stroke:#181818;stroke-width:1.0;stroke-dasharray:2.0,2.0;" x1="472.8774" x2="700.1978" y1="237.125" y2="237.125"/><text fill="#000000" font-family="sans-serif" font-size="13" lengthAdjust="spacing" textLength="73.5186" x="484.8774" y="232.0591">embedding</text><polygon fill="#181818" points="807.6089,262.2578,817.6089,266.2578,807.6089,270.2578,811.6089,266.2578" style="stroke:#181818;stroke-width:1.0;"/><line style="stroke:#181818;stroke-width:1.0;" x1="467.8774" x2="813.6089" y1="266.2578" y2="266.2578"/><text fill="#000000" font-family="sans-serif" font-size="13" lengthAdjust="spacing" textLength="154.4067" x="474.8774" y="261.1919">matchUser(embedding)</text><polygon fill="#181818" points="478.8774,291.3906,468.8774,295.3906,478.8774,299.3906,474.8774,295.3906" style="stroke:#181818;stroke-width:1.0;"/><line style="stroke:#181818;stroke-width:1.0;stroke-dasharray:2.0,2.0;" x1="472.8774" x2="818.6089" y1="295.3906" y2="295.3906"/><text fill="#000000" font-family="sans-serif" font-size="13" lengthAdjust="spacing" textLength="90.8794" x="484.8774" y="290.3247">identifiedUser</text><polygon fill="#181818" points="329.105,320.5234,319.105,324.5234,329.105,328.5234,325.105,324.5234" style="stroke:#181818;stroke-width:1.0;"/><line style="stroke:#181818;stroke-width:1.0;stroke-dasharray:2.0,2.0;" x1="323.105" x2="466.8774" y1="324.5234" y2="324.5234"/><text fill="#000000" font-family="sans-serif" font-size="13" lengthAdjust="spacing" textLength="89.8257" x="335.105" y="319.4575">userIdentified</text><polygon fill="#181818" points="34.9551,349.6563,24.9551,353.6563,34.9551,357.6563,30.9551,353.6563" style="stroke:#181818;stroke-width:1.0;"/><line style="stroke:#181818;stroke-width:1.0;stroke-dasharray:2.0,2.0;" x1="28.9551" x2="317.105" y1="353.6563" y2="353.6563"/><text fill="#000000" font-family="sans-serif" font-size="13" lengthAdjust="spacing" textLength="135.2559" x="40.9551" y="348.5903">authenticationResult</text><!--SRC=[NP4zRiCm38LtdOB8b0o-W8S2GTsXGvSMFG1ZiJO1_KMY2oIdZ-IcYUHD8B_t7aa9Yo7uelD2RYGO6AU85ZeuBZAJ4nvHI2aSnKVuJXHLm9Yh7D0974CmXM3lclfke63yXJHyU4rc1vZ-NWtrEcFCnXJvkl4TE8sHBJlCiKgLNEXUwhWUqdAoBDMOkVfPzaYo_sLDVa31WweqnMATeeVSpwAVIqskhS8qS_KmaQEOh_1cJwGrkwaMDInqpmJwfv- -pLOzM9HnBglj7-n1DKpjTv-OIQ-_S3VT7cN9lVS7sIwVsIBj0JStIukH6m00]--></g></svg>