<svg xmlns="http://www.w3.org/2000/svg" xmlns:xlink="http://www.w3.org/1999/xlink" contentStyleType="text/css" height="640px" preserveAspectRatio="none" style="width:1302px;height:640px;background:#FFFFFF;" version="1.1" viewBox="0 0 1302 640" width="1302px" zoomAndPan="magnify"><title>Sequence Diagram - CreateUser</title><defs/><g><text fill="#000000" font-family="sans-serif" font-size="14" font-weight="bold" lengthAdjust="spacing" textLength="252.4922" x="524.2288" y="27.9951">Sequence Diagram - CreateUser</text><line style="stroke:#181818;stroke-width:0.5;stroke-dasharray:5.0,5.0;" x1="23" x2="23" y1="118.5938" y2="559.4531"/><line style="stroke:#181818;stroke-width:0.5;stroke-dasharray:5.0,5.0;" x1="285.8359" x2="285.8359" y1="118.5938" y2="559.4531"/><line style="stroke:#181818;stroke-width:0.5;stroke-dasharray:5.0,5.0;" x1="498.5088" x2="498.5088" y1="118.5938" y2="559.4531"/><line style="stroke:#181818;stroke-width:0.5;stroke-dasharray:5.0,5.0;" x1="716.9556" x2="716.9556" y1="118.5938" y2="559.4531"/><line style="stroke:#181818;stroke-width:0.5;stroke-dasharray:5.0,5.0;" x1="804.4829" x2="804.4829" y1="118.5938" y2="559.4531"/><line style="stroke:#181818;stroke-width:0.5;stroke-dasharray:5.0,5.0;" x1="915.5034" x2="915.5034" y1="118.5938" y2="559.4531"/><line style="stroke:#181818;stroke-width:0.5;stroke-dasharray:5.0,5.0;" x1="1061.9292" x2="1061.9292" y1="118.5938" y2="559.4531"/><line style="stroke:#181818;stroke-width:0.5;stroke-dasharray:5.0,5.0;" x1="1232.9448" x2="1232.9448" y1="118.5938" y2="559.4531"/><text fill="#000000" font-family="sans-serif" font-size="14" lengthAdjust="spacing" textLength="31.9102" x="5" y="115.292">User</text><ellipse cx="23.9551" cy="50.7969" fill="#E2E2F0" rx="8" ry="8" style="stroke:#181818;stroke-width:0.5;"/><path d="M23.9551,58.7969 L23.9551,85.7969 M10.9551,66.7969 L36.9551,66.7969 M23.9551,85.7969 L10.9551,100.7969 M23.9551,85.7969 L36.9551,100.7969 " fill="none" style="stroke:#181818;stroke-width:0.5;"/><text fill="#000000" font-family="sans-serif" font-size="14" lengthAdjust="spacing" textLength="31.9102" x="5" y="571.4482">User</text><ellipse cx="23.9551" cy="583.25" fill="#E2E2F0" rx="8" ry="8" style="stroke:#181818;stroke-width:0.5;"/><path d="M23.9551,591.25 L23.9551,618.25 M10.9551,599.25 L36.9551,599.25 M23.9551,618.25 L10.9551,633.25 M23.9551,618.25 L36.9551,633.25 " fill="none" style="stroke:#181818;stroke-width:0.5;"/><rect fill="#E2E2F0" height="30.2969" rx="2.5" ry="2.5" style="stroke:#181818;stroke-width:0.5;" width="92.2236" x="239.8359" y="87.2969"/><text fill="#000000" font-family="sans-serif" font-size="14" lengthAdjust="spacing" textLength="78.2236" x="246.8359" y="107.292">Application</text><rect fill="#E2E2F0" height="30.2969" rx="2.5" ry="2.5" style="stroke:#181818;stroke-width:0.5;" width="92.2236" x="239.8359" y="558.4531"/><text fill="#000000" font-family="sans-serif" font-size="14" lengthAdjust="spacing" textLength="78.2236" x="246.8359" y="578.4482">Application</text><rect fill="#E2E2F0" height="30.2969" rx="2.5" ry="2.5" style="stroke:#181818;stroke-width:0.5;" width="120.627" x="438.5088" y="87.2969"/><text fill="#000000" font-family="sans-serif" font-size="14" lengthAdjust="spacing" textLength="106.627" x="445.5088" y="107.292">MLOps Pipeline</text><rect fill="#E2E2F0" height="30.2969" rx="2.5" ry="2.5" style="stroke:#181818;stroke-width:0.5;" width="120.627" x="438.5088" y="558.4531"/><text fill="#000000" font-family="sans-serif" font-size="14" lengthAdjust="spacing" textLength="106.627" x="445.5088" y="578.4482">MLOps Pipeline</text><text fill="#000000" font-family="sans-serif" font-size="14" lengthAdjust="spacing" textLength="66.5273" x="680.9556" y="115.292">DataLake</text><path d="M699.2192,66.2969 C699.2192,56.2969 717.2192,56.2969 717.2192,56.2969 C717.2192,56.2969 735.2192,56.2969 735.2192,66.2969 L735.2192,92.2969 C735.2192,102.2969 717.2192,102.2969 717.2192,102.2969 C717.2192,102.2969 699.2192,102.2969 699.2192,92.2969 L699.2192,66.2969 " fill="#E2E2F0" style="stroke:#181818;stroke-width:1.5;"/><path d="M699.2192,66.2969 C699.2192,76.2969 717.2192,76.2969 717.2192,76.2969 C717.2192,76.2969 735.2192,76.2969 735.2192,66.2969 " fill="none" style="stroke:#181818;stroke-width:1.5;"/><text fill="#000000" font-family="sans-serif" font-size="14" lengthAdjust="spacing" textLength="66.5273" x="680.9556" y="571.4482">DataLake</text><path d="M699.2192,584.75 C699.2192,574.75 717.2192,574.75 717.2192,574.75 C717.2192,574.75 735.2192,574.75 735.2192,584.75 L735.2192,610.75 C735.2192,620.75 717.2192,620.75 717.2192,620.75 C717.2192,620.75 699.2192,620.75 699.2192,610.75 L699.2192,584.75 " fill="#E2E2F0" style="stroke:#181818;stroke-width:1.5;"/><path d="M699.2192,584.75 C699.2192,594.75 717.2192,594.75 717.2192,594.75 C717.2192,594.75 735.2192,594.75 735.2192,584.75 " fill="none" style="stroke:#181818;stroke-width:1.5;"/><text fill="#000000" font-family="sans-serif" font-size="14" lengthAdjust="spacing" textLength="77.0205" x="763.4829" y="115.292">S3 Storage</text><path d="M786.9932,66.2969 C786.9932,56.2969 804.9932,56.2969 804.9932,56.2969 C804.9932,56.2969 822.9932,56.2969 822.9932,66.2969 L822.9932,92.2969 C822.9932,102.2969 804.9932,102.2969 804.9932,102.2969 C804.9932,102.2969 786.9932,102.2969 786.9932,92.2969 L786.9932,66.2969 " fill="#E2E2F0" style="stroke:#181818;stroke-width:1.5;"/><path d="M786.9932,66.2969 C786.9932,76.2969 804.9932,76.2969 804.9932,76.2969 C804.9932,76.2969 822.9932,76.2969 822.9932,66.2969 " fill="none" style="stroke:#181818;stroke-width:1.5;"/><text fill="#000000" font-family="sans-serif" font-size="14" lengthAdjust="spacing" textLength="77.0205" x="763.4829" y="571.4482">S3 Storage</text><path d="M786.9932,584.75 C786.9932,574.75 804.9932,574.75 804.9932,574.75 C804.9932,574.75 822.9932,574.75 822.9932,584.75 L822.9932,610.75 C822.9932,620.75 804.9932,620.75 804.9932,620.75 C804.9932,620.75 786.9932,620.75 786.9932,610.75 L786.9932,584.75 " fill="#E2E2F0" style="stroke:#181818;stroke-width:1.5;"/><path d="M786.9932,584.75 C786.9932,594.75 804.9932,594.75 804.9932,594.75 C804.9932,594.75 822.9932,594.75 822.9932,584.75 " fill="none" style="stroke:#181818;stroke-width:1.5;"/><rect fill="#E2E2F0" height="30.2969" rx="2.5" ry="2.5" style="stroke:#181818;stroke-width:0.5;" width="118.4258" x="856.5034" y="87.2969"/><text fill="#000000" font-family="sans-serif" font-size="14" lengthAdjust="spacing" textLength="104.4258" x="863.5034" y="107.292">Model Registry</text><rect fill="#E2E2F0" height="30.2969" rx="2.5" ry="2.5" style="stroke:#181818;stroke-width:0.5;" width="118.4258" x="856.5034" y="558.4531"/><text fill="#000000" font-family="sans-serif" font-size="14" lengthAdjust="spacing" textLength="104.4258" x="863.5034" y="578.4482">Model Registry</text><rect fill="#E2E2F0" height="30.2969" rx="2.5" ry="2.5" style="stroke:#181818;stroke-width:0.5;" width="155.8252" x="984.9292" y="87.2969"/><text fill="#000000" font-family="sans-serif" font-size="14" lengthAdjust="spacing" textLength="141.8252" x="991.9292" y="107.292">Deployment Service</text><rect fill="#E2E2F0" height="30.2969" rx="2.5" ry="2.5" style="stroke:#181818;stroke-width:0.5;" width="155.8252" x="984.9292" y="558.4531"/><text fill="#000000" font-family="sans-serif" font-size="14" lengthAdjust="spacing" textLength="141.8252" x="991.9292" y="578.4482">Deployment Service</text><rect fill="#E2E2F0" height="30.2969" rx="2.5" ry="2.5" style="stroke:#181818;stroke-width:0.5;" width="127.0049" x="1169.9448" y="87.2969"/><text fill="#000000" font-family="sans-serif" font-size="14" lengthAdjust="spacing" textLength="113.0049" x="1176.9448" y="107.292">Deployed Model</text><rect fill="#E2E2F0" height="30.2969" rx="2.5" ry="2.5" style="stroke:#181818;stroke-width:0.5;" width="127.0049" x="1169.9448" y="558.4531"/><text fill="#000000" font-family="sans-serif" font-size="14" lengthAdjust="spacing" textLength="113.0049" x="1176.9448" y="578.4482">Deployed Model</text><polygon fill="#181818" points="273.9478,145.7266,283.9478,149.7266,273.9478,153.7266,277.9478,149.7266" style="stroke:#181818;stroke-width:1.0;"/><line style="stroke:#181818;stroke-width:1.0;" x1="23.9551" x2="279.9478" y1="149.7266" y2="149.7266"/><text fill="#000000" font-family="sans-serif" font-size="13" lengthAdjust="spacing" textLength="237.9927" x="30.9551" y="144.6606">submitNewUserRequest(userVideos)</text><polygon fill="#181818" points="792.9932,174.8594,802.9932,178.8594,792.9932,182.8594,796.9932,178.8594" style="stroke:#181818;stroke-width:1.0;"/><line style="stroke:#181818;stroke-width:1.0;" x1="285.9478" x2="798.9932" y1="178.8594" y2="178.8594"/><text fill="#000000" font-family="sans-serif" font-size="13" lengthAdjust="spacing" textLength="169.7363" x="292.9478" y="173.7935">uploadVideos(userVideos)</text><polygon fill="#181818" points="296.9478,203.9922,286.9478,207.9922,296.9478,211.9922,292.9478,207.9922" style="stroke:#181818;stroke-width:1.0;"/><line style="stroke:#181818;stroke-width:1.0;stroke-dasharray:2.0,2.0;" x1="290.9478" x2="803.9932" y1="207.9922" y2="207.9922"/><text fill="#000000" font-family="sans-serif" font-size="13" lengthAdjust="spacing" textLength="85.1792" x="302.9478" y="202.9263">videosStored</text><polygon fill="#181818" points="486.8223,233.125,496.8223,237.125,486.8223,241.125,490.8223,237.125" style="stroke:#181818;stroke-width:1.0;"/><line style="stroke:#181818;stroke-width:1.0;" x1="285.9478" x2="492.8223" y1="237.125" y2="237.125"/><text fill="#000000" font-family="sans-serif" font-size="13" lengthAdjust="spacing" textLength="188.8745" x="292.9478" y="232.0591">triggerRetrain(newUserData)</text><polygon fill="#181818" points="705.2192,262.2578,715.2192,266.2578,705.2192,270.2578,709.2192,266.2578" style="stroke:#181818;stroke-width:1.0;"/><line style="stroke:#181818;stroke-width:1.0;" x1="498.8223" x2="711.2192" y1="266.2578" y2="266.2578"/><text fill="#000000" font-family="sans-serif" font-size="13" lengthAdjust="spacing" textLength="194.397" x="505.8223" y="261.1919">updateDataset(newUserData)</text><line style="stroke:#181818;stroke-width:1.0;" x1="498.8223" x2="540.8223" y1="295.3906" y2="295.3906"/><line style="stroke:#181818;stroke-width:1.0;" x1="540.8223" x2="540.8223" y1="295.3906" y2="308.3906"/><line style="stroke:#181818;stroke-width:1.0;" x1="499.8223" x2="540.8223" y1="308.3906" y2="308.3906"/><polygon fill="#181818" points="509.8223,304.3906,499.8223,308.3906,509.8223,312.3906,505.8223,308.3906" style="stroke:#181818;stroke-width:1.0;"/><text fill="#000000" font-family="sans-serif" font-size="13" lengthAdjust="spacing" textLength="197.7422" x="505.8223" y="290.3247">retrainModel(updatedDataset)</text><polygon fill="#181818" points="903.7163,333.5234,913.7163,337.5234,903.7163,341.5234,907.7163,337.5234" style="stroke:#181818;stroke-width:1.0;"/><line style="stroke:#181818;stroke-width:1.0;" x1="498.8223" x2="909.7163" y1="337.5234" y2="337.5234"/><text fill="#000000" font-family="sans-serif" font-size="13" lengthAdjust="spacing" textLength="97.8174" x="505.8223" y="332.4575">saveNewModel</text><polygon fill="#181818" points="509.8223,362.6563,499.8223,366.6563,509.8223,370.6563,505.8223,366.6563" style="stroke:#181818;stroke-width:1.0;"/><line style="stroke:#181818;stroke-width:1.0;stroke-dasharray:2.0,2.0;" x1="503.8223" x2="914.7163" y1="366.6563" y2="366.6563"/><text fill="#000000" font-family="sans-serif" font-size="13" lengthAdjust="spacing" textLength="80.6406" x="515.8223" y="361.5903">modelSaved</text><polygon fill="#181818" points="1050.8418,391.7891,1060.8418,395.7891,1050.8418,399.7891,1054.8418,395.7891" style="stroke:#181818;stroke-width:1.0;"/><line style="stroke:#181818;stroke-width:1.0;" x1="498.8223" x2="1056.8418" y1="395.7891" y2="395.7891"/><text fill="#000000" font-family="sans-serif" font-size="13" lengthAdjust="spacing" textLength="111.1475" x="505.8223" y="390.7231">deployNewModel</text><polygon fill="#181818" points="1221.4473,420.9219,1231.4473,424.9219,1221.4473,428.9219,1225.4473,424.9219" style="stroke:#181818;stroke-width:1.0;"/><line style="stroke:#181818;stroke-width:1.0;" x1="1062.8418" x2="1227.4473" y1="424.9219" y2="424.9219"/><text fill="#000000" font-family="sans-serif" font-size="13" lengthAdjust="spacing" textLength="146.6055" x="1069.8418" y="419.856">updateDeployedModel</text><polygon fill="#181818" points="1073.8418,450.0547,1063.8418,454.0547,1073.8418,458.0547,1069.8418,454.0547" style="stroke:#181818;stroke-width:1.0;"/><line style="stroke:#181818;stroke-width:1.0;stroke-dasharray:2.0,2.0;" x1="1067.8418" x2="1232.4473" y1="454.0547" y2="454.0547"/><text fill="#000000" font-family="sans-serif" font-size="13" lengthAdjust="spacing" textLength="145.4756" x="1079.8418" y="448.9888">deploymentConfirmed</text><polygon fill="#181818" points="509.8223,479.1875,499.8223,483.1875,509.8223,487.1875,505.8223,483.1875" style="stroke:#181818;stroke-width:1.0;"/><line style="stroke:#181818;stroke-width:1.0;stroke-dasharray:2.0,2.0;" x1="503.8223" x2="1061.8418" y1="483.1875" y2="483.1875"/><text fill="#000000" font-family="sans-serif" font-size="13" lengthAdjust="spacing" textLength="130.0889" x="515.8223" y="478.1216">deploymentSuccess</text><polygon fill="#181818" points="296.9478,508.3203,286.9478,512.3203,296.9478,516.3203,292.9478,512.3203" style="stroke:#181818;stroke-width:1.0;"/><line style="stroke:#181818;stroke-width:1.0;stroke-dasharray:2.0,2.0;" x1="290.9478" x2="497.8223" y1="512.3203" y2="512.3203"/><text fill="#000000" font-family="sans-serif" font-size="13" lengthAdjust="spacing" textLength="130.0889" x="302.9478" y="507.2544">deploymentSuccess</text><polygon fill="#181818" points="34.9551,537.4531,24.9551,541.4531,34.9551,545.4531,30.9551,541.4531" style="stroke:#181818;stroke-width:1.0;"/><line style="stroke:#181818;stroke-width:1.0;stroke-dasharray:2.0,2.0;" x1="28.9551" x2="284.9478" y1="541.4531" y2="541.4531"/><text fill="#000000" font-family="sans-serif" font-size="13" lengthAdjust="spacing" textLength="80.0884" x="40.9551" y="536.3872">userCreated</text><!--SRC=[XLExRiCm3Dpz5OIdPCYKpKE18XdJfeZGxep46aHjsPNa5Fdxwf67hRZeOiWdtXrvj1sxXa3Gzq1Q4cmPQuCjh61Z21szMp95WT9r1kAvH-DOSe_QmNFVDopHSQSdUFcos_SMthYdXZMLW1OYT4KAXGwFQ0dAhJ_jy8lA4IRM8BmXreagrfbwfwY10zLidJadzG1TaMdrblgcExVapuBCYMKIlSCNT8v5AYdVFOeYf02hf_7m5TZXsB9xfPzmUmXXMhSO_Fc35NLsMOog0rciAnYy0wfKCAdruwzoWrEy2wcGoiKcqLRW3DTrwC8PPBtGgQcGyxAOb0RkDVxGZby0XNTBxXzMvcYILGneaNJKHMYEFDwLZmvFv8DBwKxkOWgPLHiAXAUecLdobLQW8dIJVwYuzNER_xBtKJknZJ-r0xJfz2URrlSqO_0umvqe1Yd9sdoKVFcFXCaNuCl3hlm8_fb-M_KB]--></g></svg>