<svg xmlns="http://www.w3.org/2000/svg" xmlns:xlink="http://www.w3.org/1999/xlink" contentStyleType="text/css" height="611px" preserveAspectRatio="none" style="width:1392px;height:611px;background:#FFFFFF;" version="1.1" viewBox="0 0 1392 611" width="1392px" zoomAndPan="magnify"><title>Sequence Diagram - CreateUser</title><defs/><g><text fill="#000000" font-family="sans-serif" font-size="14" font-weight="bold" lengthAdjust="spacing" textLength="252.4922" x="569.1101" y="27.9951">Sequence Diagram - CreateUser</text><line style="stroke:#181818;stroke-width:0.5;stroke-dasharray:5.0,5.0;" x1="23" x2="23" y1="118.5938" y2="530.3203"/><line style="stroke:#181818;stroke-width:0.5;stroke-dasharray:5.0,5.0;" x1="285.8359" x2="285.8359" y1="118.5938" y2="530.3203"/><line style="stroke:#181818;stroke-width:0.5;stroke-dasharray:5.0,5.0;" x1="479.1738" x2="479.1738" y1="118.5938" y2="530.3203"/><line style="stroke:#181818;stroke-width:0.5;stroke-dasharray:5.0,5.0;" x1="595.1943" x2="595.1943" y1="118.5938" y2="530.3203"/><line style="stroke:#181818;stroke-width:0.5;stroke-dasharray:5.0,5.0;" x1="806.7612" x2="806.7612" y1="118.5938" y2="530.3203"/><line style="stroke:#181818;stroke-width:0.5;stroke-dasharray:5.0,5.0;" x1="914.7388" x2="914.7388" y1="118.5938" y2="530.3203"/><line style="stroke:#181818;stroke-width:0.5;stroke-dasharray:5.0,5.0;" x1="1061.1646" x2="1061.1646" y1="118.5938" y2="530.3203"/><line style="stroke:#181818;stroke-width:0.5;stroke-dasharray:5.0,5.0;" x1="1232.1802" x2="1232.1802" y1="118.5938" y2="530.3203"/><line style="stroke:#181818;stroke-width:0.5;stroke-dasharray:5.0,5.0;" x1="1346.1851" x2="1346.1851" y1="118.5938" y2="530.3203"/><text fill="#000000" font-family="sans-serif" font-size="14" lengthAdjust="spacing" textLength="31.9102" x="5" y="115.292">User</text><ellipse cx="23.9551" cy="50.7969" fill="#E2E2F0" rx="8" ry="8" style="stroke:#181818;stroke-width:0.5;"/><path d="M23.9551,58.7969 L23.9551,85.7969 M10.9551,66.7969 L36.9551,66.7969 M23.9551,85.7969 L10.9551,100.7969 M23.9551,85.7969 L36.9551,100.7969 " fill="none" style="stroke:#181818;stroke-width:0.5;"/><text fill="#000000" font-family="sans-serif" font-size="14" lengthAdjust="spacing" textLength="31.9102" x="5" y="542.3154">User</text><ellipse cx="23.9551" cy="554.1172" fill="#E2E2F0" rx="8" ry="8" style="stroke:#181818;stroke-width:0.5;"/><path d="M23.9551,562.1172 L23.9551,589.1172 M10.9551,570.1172 L36.9551,570.1172 M23.9551,589.1172 L10.9551,604.1172 M23.9551,589.1172 L36.9551,604.1172 " fill="none" style="stroke:#181818;stroke-width:0.5;"/><rect fill="#E2E2F0" height="30.2969" rx="2.5" ry="2.5" style="stroke:#181818;stroke-width:0.5;" width="92.2236" x="239.8359" y="87.2969"/><text fill="#000000" font-family="sans-serif" font-size="14" lengthAdjust="spacing" textLength="78.2236" x="246.8359" y="107.292">Application</text><rect fill="#E2E2F0" height="30.2969" rx="2.5" ry="2.5" style="stroke:#181818;stroke-width:0.5;" width="92.2236" x="239.8359" y="529.3203"/><text fill="#000000" font-family="sans-serif" font-size="14" lengthAdjust="spacing" textLength="78.2236" x="246.8359" y="549.3154">Application</text><rect fill="#E2E2F0" height="30.2969" rx="2.5" ry="2.5" style="stroke:#181818;stroke-width:0.5;" width="91.0205" x="434.1738" y="87.2969"/><text fill="#000000" font-family="sans-serif" font-size="14" lengthAdjust="spacing" textLength="77.0205" x="441.1738" y="107.292">S3 Storage</text><rect fill="#E2E2F0" height="30.2969" rx="2.5" ry="2.5" style="stroke:#181818;stroke-width:0.5;" width="91.0205" x="434.1738" y="529.3203"/><text fill="#000000" font-family="sans-serif" font-size="14" lengthAdjust="spacing" textLength="77.0205" x="441.1738" y="549.3154">S3 Storage</text><rect fill="#E2E2F0" height="30.2969" rx="2.5" ry="2.5" style="stroke:#181818;stroke-width:0.5;" width="120.627" x="535.1943" y="87.2969"/><text fill="#000000" font-family="sans-serif" font-size="14" lengthAdjust="spacing" textLength="106.627" x="542.1943" y="107.292">MLOps Pipeline</text><rect fill="#E2E2F0" height="30.2969" rx="2.5" ry="2.5" style="stroke:#181818;stroke-width:0.5;" width="120.627" x="535.1943" y="529.3203"/><text fill="#000000" font-family="sans-serif" font-size="14" lengthAdjust="spacing" textLength="106.627" x="542.1943" y="549.3154">MLOps Pipeline</text><text fill="#000000" font-family="sans-serif" font-size="14" lengthAdjust="spacing" textLength="70.9775" x="768.7612" y="115.292">Data Lake</text><path d="M789.25,66.2969 C789.25,56.2969 807.25,56.2969 807.25,56.2969 C807.25,56.2969 825.25,56.2969 825.25,66.2969 L825.25,92.2969 C825.25,102.2969 807.25,102.2969 807.25,102.2969 C807.25,102.2969 789.25,102.2969 789.25,92.2969 L789.25,66.2969 " fill="#E2E2F0" style="stroke:#181818;stroke-width:1.5;"/><path d="M789.25,66.2969 C789.25,76.2969 807.25,76.2969 807.25,76.2969 C807.25,76.2969 825.25,76.2969 825.25,66.2969 " fill="none" style="stroke:#181818;stroke-width:1.5;"/><text fill="#000000" font-family="sans-serif" font-size="14" lengthAdjust="spacing" textLength="70.9775" x="768.7612" y="542.3154">Data Lake</text><path d="M789.25,555.6172 C789.25,545.6172 807.25,545.6172 807.25,545.6172 C807.25,545.6172 825.25,545.6172 825.25,555.6172 L825.25,581.6172 C825.25,591.6172 807.25,591.6172 807.25,591.6172 C807.25,591.6172 789.25,591.6172 789.25,581.6172 L789.25,555.6172 " fill="#E2E2F0" style="stroke:#181818;stroke-width:1.5;"/><path d="M789.25,555.6172 C789.25,565.6172 807.25,565.6172 807.25,565.6172 C807.25,565.6172 825.25,565.6172 825.25,555.6172 " fill="none" style="stroke:#181818;stroke-width:1.5;"/><rect fill="#E2E2F0" height="30.2969" rx="2.5" ry="2.5" style="stroke:#181818;stroke-width:0.5;" width="118.4258" x="855.7388" y="87.2969"/><text fill="#000000" font-family="sans-serif" font-size="14" lengthAdjust="spacing" textLength="104.4258" x="862.7388" y="107.292">Model Registry</text><rect fill="#E2E2F0" height="30.2969" rx="2.5" ry="2.5" style="stroke:#181818;stroke-width:0.5;" width="118.4258" x="855.7388" y="529.3203"/><text fill="#000000" font-family="sans-serif" font-size="14" lengthAdjust="spacing" textLength="104.4258" x="862.7388" y="549.3154">Model Registry</text><rect fill="#E2E2F0" height="30.2969" rx="2.5" ry="2.5" style="stroke:#181818;stroke-width:0.5;" width="155.8252" x="984.1646" y="87.2969"/><text fill="#000000" font-family="sans-serif" font-size="14" lengthAdjust="spacing" textLength="141.8252" x="991.1646" y="107.292">Deployment Service</text><rect fill="#E2E2F0" height="30.2969" rx="2.5" ry="2.5" style="stroke:#181818;stroke-width:0.5;" width="155.8252" x="984.1646" y="529.3203"/><text fill="#000000" font-family="sans-serif" font-size="14" lengthAdjust="spacing" textLength="141.8252" x="991.1646" y="549.3154">Deployment Service</text><rect fill="#E2E2F0" height="30.2969" rx="2.5" ry="2.5" style="stroke:#181818;stroke-width:0.5;" width="127.0049" x="1169.1802" y="87.2969"/><text fill="#000000" font-family="sans-serif" font-size="14" lengthAdjust="spacing" textLength="113.0049" x="1176.1802" y="107.292">Deployed Model</text><rect fill="#E2E2F0" height="30.2969" rx="2.5" ry="2.5" style="stroke:#181818;stroke-width:0.5;" width="127.0049" x="1169.1802" y="529.3203"/><text fill="#000000" font-family="sans-serif" font-size="14" lengthAdjust="spacing" textLength="113.0049" x="1176.1802" y="549.3154">Deployed Model</text><rect fill="#E2E2F0" height="30.2969" rx="2.5" ry="2.5" style="stroke:#181818;stroke-width:0.5;" width="80.5273" x="1306.1851" y="87.2969"/><text fill="#000000" font-family="sans-serif" font-size="14" lengthAdjust="spacing" textLength="66.5273" x="1313.1851" y="107.292">DataLake</text><rect fill="#E2E2F0" height="30.2969" rx="2.5" ry="2.5" style="stroke:#181818;stroke-width:0.5;" width="80.5273" x="1306.1851" y="529.3203"/><text fill="#000000" font-family="sans-serif" font-size="14" lengthAdjust="spacing" textLength="66.5273" x="1313.1851" y="549.3154">DataLake</text><polygon fill="#181818" points="273.9478,145.7266,283.9478,149.7266,273.9478,153.7266,277.9478,149.7266" style="stroke:#181818;stroke-width:1.0;"/><line style="stroke:#181818;stroke-width:1.0;" x1="23.9551" x2="279.9478" y1="149.7266" y2="149.7266"/><text fill="#000000" font-family="sans-serif" font-size="13" lengthAdjust="spacing" textLength="237.9927" x="30.9551" y="144.6606">submitNewUserRequest(userVideos)</text><polygon fill="#181818" points="467.6841,174.8594,477.6841,178.8594,467.6841,182.8594,471.6841,178.8594" style="stroke:#181818;stroke-width:1.0;"/><line style="stroke:#181818;stroke-width:1.0;" x1="285.9478" x2="473.6841" y1="178.8594" y2="178.8594"/><text fill="#000000" font-family="sans-serif" font-size="13" lengthAdjust="spacing" textLength="169.7363" x="292.9478" y="173.7935">uploadVideos(userVideos)</text><polygon fill="#181818" points="296.9478,203.9922,286.9478,207.9922,296.9478,211.9922,292.9478,207.9922" style="stroke:#181818;stroke-width:1.0;"/><line style="stroke:#181818;stroke-width:1.0;stroke-dasharray:2.0,2.0;" x1="290.9478" x2="478.6841" y1="207.9922" y2="207.9922"/><text fill="#000000" font-family="sans-serif" font-size="13" lengthAdjust="spacing" textLength="85.1792" x="302.9478" y="202.9263">videosStored</text><polygon fill="#181818" points="583.5078,233.125,593.5078,237.125,583.5078,241.125,587.5078,237.125" style="stroke:#181818;stroke-width:1.0;"/><line style="stroke:#181818;stroke-width:1.0;" x1="285.9478" x2="589.5078" y1="237.125" y2="237.125"/><text fill="#000000" font-family="sans-serif" font-size="13" lengthAdjust="spacing" textLength="188.8745" x="292.9478" y="232.0591">triggerRetrain(newUserData)</text><polygon fill="#181818" points="1334.4487,262.2578,1344.4487,266.2578,1334.4487,270.2578,1338.4487,266.2578" style="stroke:#181818;stroke-width:1.0;"/><line style="stroke:#181818;stroke-width:1.0;" x1="595.5078" x2="1340.4487" y1="266.2578" y2="266.2578"/><text fill="#000000" font-family="sans-serif" font-size="13" lengthAdjust="spacing" textLength="194.397" x="602.5078" y="261.1919">updateDataset(newUserData)</text><line style="stroke:#181818;stroke-width:1.0;" x1="595.5078" x2="637.5078" y1="295.3906" y2="295.3906"/><line style="stroke:#181818;stroke-width:1.0;" x1="637.5078" x2="637.5078" y1="295.3906" y2="308.3906"/><line style="stroke:#181818;stroke-width:1.0;" x1="596.5078" x2="637.5078" y1="308.3906" y2="308.3906"/><polygon fill="#181818" points="606.5078,304.3906,596.5078,308.3906,606.5078,312.3906,602.5078,308.3906" style="stroke:#181818;stroke-width:1.0;"/><text fill="#000000" font-family="sans-serif" font-size="13" lengthAdjust="spacing" textLength="197.7422" x="602.5078" y="290.3247">retrainModel(updatedDataset)</text><polygon fill="#181818" points="902.9517,333.5234,912.9517,337.5234,902.9517,341.5234,906.9517,337.5234" style="stroke:#181818;stroke-width:1.0;"/><line style="stroke:#181818;stroke-width:1.0;" x1="595.5078" x2="908.9517" y1="337.5234" y2="337.5234"/><text fill="#000000" font-family="sans-serif" font-size="13" lengthAdjust="spacing" textLength="97.8174" x="602.5078" y="332.4575">saveNewModel</text><polygon fill="#181818" points="606.5078,362.6563,596.5078,366.6563,606.5078,370.6563,602.5078,366.6563" style="stroke:#181818;stroke-width:1.0;"/><line style="stroke:#181818;stroke-width:1.0;stroke-dasharray:2.0,2.0;" x1="600.5078" x2="913.9517" y1="366.6563" y2="366.6563"/><text fill="#000000" font-family="sans-serif" font-size="13" lengthAdjust="spacing" textLength="80.6406" x="612.5078" y="361.5903">modelSaved</text><polygon fill="#181818" points="1050.0771,391.7891,1060.0771,395.7891,1050.0771,399.7891,1054.0771,395.7891" style="stroke:#181818;stroke-width:1.0;"/><line style="stroke:#181818;stroke-width:1.0;" x1="595.5078" x2="1056.0771" y1="395.7891" y2="395.7891"/><text fill="#000000" font-family="sans-serif" font-size="13" lengthAdjust="spacing" textLength="111.1475" x="602.5078" y="390.7231">deployNewModel</text><polygon fill="#181818" points="1220.6826,420.9219,1230.6826,424.9219,1220.6826,428.9219,1224.6826,424.9219" style="stroke:#181818;stroke-width:1.0;"/><line style="stroke:#181818;stroke-width:1.0;" x1="1062.0771" x2="1226.6826" y1="424.9219" y2="424.9219"/><text fill="#000000" font-family="sans-serif" font-size="13" lengthAdjust="spacing" textLength="146.6055" x="1069.0771" y="419.856">updateDeployedModel</text><polygon fill="#181818" points="1073.0771,450.0547,1063.0771,454.0547,1073.0771,458.0547,1069.0771,454.0547" style="stroke:#181818;stroke-width:1.0;"/><line style="stroke:#181818;stroke-width:1.0;stroke-dasharray:2.0,2.0;" x1="1067.0771" x2="1231.6826" y1="454.0547" y2="454.0547"/><text fill="#000000" font-family="sans-serif" font-size="13" lengthAdjust="spacing" textLength="145.4756" x="1079.0771" y="448.9888">deploymentConfirmed</text><polygon fill="#181818" points="606.5078,479.1875,596.5078,483.1875,606.5078,487.1875,602.5078,483.1875" style="stroke:#181818;stroke-width:1.0;"/><line style="stroke:#181818;stroke-width:1.0;stroke-dasharray:2.0,2.0;" x1="600.5078" x2="1061.0771" y1="483.1875" y2="483.1875"/><text fill="#000000" font-family="sans-serif" font-size="13" lengthAdjust="spacing" textLength="130.0889" x="612.5078" y="478.1216">deploymentSuccess</text><polygon fill="#181818" points="34.9551,508.3203,24.9551,512.3203,34.9551,516.3203,30.9551,512.3203" style="stroke:#181818;stroke-width:1.0;"/><line style="stroke:#181818;stroke-width:1.0;stroke-dasharray:2.0,2.0;" x1="28.9551" x2="284.9478" y1="512.3203" y2="512.3203"/><text fill="#000000" font-family="sans-serif" font-size="13" lengthAdjust="spacing" textLength="80.0884" x="40.9551" y="507.2544">userCreated</text><!--SRC=[XLEnReCm4DtvYXDJCcJAnb2fIiQqgOBQ_OAlw5Gmr3QfylVrOK8meUg2ZkVttftVWMDN4UJqtP4k2FQCfS4QDh0pX8xUBPaamS8r1lgwHUEuu1QrW-UshRX0nusEy3JVGkuLM58AQ27V3cynw-LmR2sySKiLwy3ieHkIA7HuHakGxdq51_oYT6RHAAhWH2LRPwx1Gg0R4hFtr5RDjIPVvsGkN8IcTtX0brIaWlEzHv988B1vckQGWUtEDRjN-f7Ja-HgtQhpzGShQkmwcR15F8QJGUSReGgyI39oO3DlT-afSangRXsbcO4pN9OoapF8UgN3Y1BjEeceeXLO0fUf_1v8tYsvVrIpZYQqwkDQ1Hyr62s9fvlpGUA5V8mXw-YiJs7MgXP2xYLguIxp1MUWUcYqVs2Cyupt7xw2oJZz67zw2xHhz2URsi-qqE3n3dTXtXK5MHilr0iaUZ-HVuRVK_q2]--></g></svg>