<svg xmlns="http://www.w3.org/2000/svg" xmlns:xlink="http://www.w3.org/1999/xlink" contentStyleType="text/css" height="552px" preserveAspectRatio="none" style="width:1324px;height:552px;background:#FFFFFF;" version="1.1" viewBox="0 0 1324 552" width="1324px" zoomAndPan="magnify"><title>Sequence Diagram - DeleteUser</title><defs/><g><text fill="#000000" font-family="sans-serif" font-size="14" font-weight="bold" lengthAdjust="spacing" textLength="251.7813" x="535.5078" y="27.9951">Sequence Diagram - DeleteUser</text><line style="stroke:#181818;stroke-width:0.5;stroke-dasharray:5.0,5.0;" x1="30" x2="30" y1="118.5938" y2="472.0547"/><line style="stroke:#181818;stroke-width:0.5;stroke-dasharray:5.0,5.0;" x1="275.2759" x2="275.2759" y1="118.5938" y2="472.0547"/><line style="stroke:#181818;stroke-width:0.5;stroke-dasharray:5.0,5.0;" x1="527.2788" x2="527.2788" y1="118.5938" y2="472.0547"/><line style="stroke:#181818;stroke-width:0.5;stroke-dasharray:5.0,5.0;" x1="738.8457" x2="738.8457" y1="118.5938" y2="472.0547"/><line style="stroke:#181818;stroke-width:0.5;stroke-dasharray:5.0,5.0;" x1="846.8232" x2="846.8232" y1="118.5938" y2="472.0547"/><line style="stroke:#181818;stroke-width:0.5;stroke-dasharray:5.0,5.0;" x1="993.249" x2="993.249" y1="118.5938" y2="472.0547"/><line style="stroke:#181818;stroke-width:0.5;stroke-dasharray:5.0,5.0;" x1="1164.2646" x2="1164.2646" y1="118.5938" y2="472.0547"/><line style="stroke:#181818;stroke-width:0.5;stroke-dasharray:5.0,5.0;" x1="1278.2695" x2="1278.2695" y1="118.5938" y2="472.0547"/><text fill="#000000" font-family="sans-serif" font-size="14" lengthAdjust="spacing" textLength="44.8643" x="5" y="115.292">Admin</text><ellipse cx="30.4321" cy="50.7969" fill="#E2E2F0" rx="8" ry="8" style="stroke:#181818;stroke-width:0.5;"/><path d="M30.4321,58.7969 L30.4321,85.7969 M17.4321,66.7969 L43.4321,66.7969 M30.4321,85.7969 L17.4321,100.7969 M30.4321,85.7969 L43.4321,100.7969 " fill="none" style="stroke:#181818;stroke-width:0.5;"/><text fill="#000000" font-family="sans-serif" font-size="14" lengthAdjust="spacing" textLength="44.8643" x="5" y="484.0498">Admin</text><ellipse cx="30.4321" cy="495.8516" fill="#E2E2F0" rx="8" ry="8" style="stroke:#181818;stroke-width:0.5;"/><path d="M30.4321,503.8516 L30.4321,530.8516 M17.4321,511.8516 L43.4321,511.8516 M30.4321,530.8516 L17.4321,545.8516 M30.4321,530.8516 L43.4321,545.8516 " fill="none" style="stroke:#181818;stroke-width:0.5;"/><rect fill="#E2E2F0" height="30.2969" rx="2.5" ry="2.5" style="stroke:#181818;stroke-width:0.5;" width="92.2236" x="229.2759" y="87.2969"/><text fill="#000000" font-family="sans-serif" font-size="14" lengthAdjust="spacing" textLength="78.2236" x="236.2759" y="107.292">Application</text><rect fill="#E2E2F0" height="30.2969" rx="2.5" ry="2.5" style="stroke:#181818;stroke-width:0.5;" width="92.2236" x="229.2759" y="471.0547"/><text fill="#000000" font-family="sans-serif" font-size="14" lengthAdjust="spacing" textLength="78.2236" x="236.2759" y="491.0498">Application</text><rect fill="#E2E2F0" height="30.2969" rx="2.5" ry="2.5" style="stroke:#181818;stroke-width:0.5;" width="120.627" x="467.2788" y="87.2969"/><text fill="#000000" font-family="sans-serif" font-size="14" lengthAdjust="spacing" textLength="106.627" x="474.2788" y="107.292">MLOps Pipeline</text><rect fill="#E2E2F0" height="30.2969" rx="2.5" ry="2.5" style="stroke:#181818;stroke-width:0.5;" width="120.627" x="467.2788" y="471.0547"/><text fill="#000000" font-family="sans-serif" font-size="14" lengthAdjust="spacing" textLength="106.627" x="474.2788" y="491.0498">MLOps Pipeline</text><text fill="#000000" font-family="sans-serif" font-size="14" lengthAdjust="spacing" textLength="70.9775" x="700.8457" y="115.292">Data Lake</text><path d="M721.3345,66.2969 C721.3345,56.2969 739.3345,56.2969 739.3345,56.2969 C739.3345,56.2969 757.3345,56.2969 757.3345,66.2969 L757.3345,92.2969 C757.3345,102.2969 739.3345,102.2969 739.3345,102.2969 C739.3345,102.2969 721.3345,102.2969 721.3345,92.2969 L721.3345,66.2969 " fill="#E2E2F0" style="stroke:#181818;stroke-width:1.5;"/><path d="M721.3345,66.2969 C721.3345,76.2969 739.3345,76.2969 739.3345,76.2969 C739.3345,76.2969 757.3345,76.2969 757.3345,66.2969 " fill="none" style="stroke:#181818;stroke-width:1.5;"/><text fill="#000000" font-family="sans-serif" font-size="14" lengthAdjust="spacing" textLength="70.9775" x="700.8457" y="484.0498">Data Lake</text><path d="M721.3345,497.3516 C721.3345,487.3516 739.3345,487.3516 739.3345,487.3516 C739.3345,487.3516 757.3345,487.3516 757.3345,497.3516 L757.3345,523.3516 C757.3345,533.3516 739.3345,533.3516 739.3345,533.3516 C739.3345,533.3516 721.3345,533.3516 721.3345,523.3516 L721.3345,497.3516 " fill="#E2E2F0" style="stroke:#181818;stroke-width:1.5;"/><path d="M721.3345,497.3516 C721.3345,507.3516 739.3345,507.3516 739.3345,507.3516 C739.3345,507.3516 757.3345,507.3516 757.3345,497.3516 " fill="none" style="stroke:#181818;stroke-width:1.5;"/><rect fill="#E2E2F0" height="30.2969" rx="2.5" ry="2.5" style="stroke:#181818;stroke-width:0.5;" width="118.4258" x="787.8232" y="87.2969"/><text fill="#000000" font-family="sans-serif" font-size="14" lengthAdjust="spacing" textLength="104.4258" x="794.8232" y="107.292">Model Registry</text><rect fill="#E2E2F0" height="30.2969" rx="2.5" ry="2.5" style="stroke:#181818;stroke-width:0.5;" width="118.4258" x="787.8232" y="471.0547"/><text fill="#000000" font-family="sans-serif" font-size="14" lengthAdjust="spacing" textLength="104.4258" x="794.8232" y="491.0498">Model Registry</text><rect fill="#E2E2F0" height="30.2969" rx="2.5" ry="2.5" style="stroke:#181818;stroke-width:0.5;" width="155.8252" x="916.249" y="87.2969"/><text fill="#000000" font-family="sans-serif" font-size="14" lengthAdjust="spacing" textLength="141.8252" x="923.249" y="107.292">Deployment Service</text><rect fill="#E2E2F0" height="30.2969" rx="2.5" ry="2.5" style="stroke:#181818;stroke-width:0.5;" width="155.8252" x="916.249" y="471.0547"/><text fill="#000000" font-family="sans-serif" font-size="14" lengthAdjust="spacing" textLength="141.8252" x="923.249" y="491.0498">Deployment Service</text><rect fill="#E2E2F0" height="30.2969" rx="2.5" ry="2.5" style="stroke:#181818;stroke-width:0.5;" width="127.0049" x="1101.2646" y="87.2969"/><text fill="#000000" font-family="sans-serif" font-size="14" lengthAdjust="spacing" textLength="113.0049" x="1108.2646" y="107.292">Deployed Model</text><rect fill="#E2E2F0" height="30.2969" rx="2.5" ry="2.5" style="stroke:#181818;stroke-width:0.5;" width="127.0049" x="1101.2646" y="471.0547"/><text fill="#000000" font-family="sans-serif" font-size="14" lengthAdjust="spacing" textLength="113.0049" x="1108.2646" y="491.0498">Deployed Model</text><rect fill="#E2E2F0" height="30.2969" rx="2.5" ry="2.5" style="stroke:#181818;stroke-width:0.5;" width="80.5273" x="1238.2695" y="87.2969"/><text fill="#000000" font-family="sans-serif" font-size="14" lengthAdjust="spacing" textLength="66.5273" x="1245.2695" y="107.292">DataLake</text><rect fill="#E2E2F0" height="30.2969" rx="2.5" ry="2.5" style="stroke:#181818;stroke-width:0.5;" width="80.5273" x="1238.2695" y="471.0547"/><text fill="#000000" font-family="sans-serif" font-size="14" lengthAdjust="spacing" textLength="66.5273" x="1245.2695" y="491.0498">DataLake</text><polygon fill="#181818" points="263.3877,145.7266,273.3877,149.7266,263.3877,153.7266,267.3877,149.7266" style="stroke:#181818;stroke-width:1.0;"/><line style="stroke:#181818;stroke-width:1.0;" x1="30.4321" x2="269.3877" y1="149.7266" y2="149.7266"/><text fill="#000000" font-family="sans-serif" font-size="13" lengthAdjust="spacing" textLength="220.9556" x="37.4321" y="144.6606">submitDeleteUserRequest(userId)</text><polygon fill="#181818" points="515.5923,174.8594,525.5923,178.8594,515.5923,182.8594,519.5923,178.8594" style="stroke:#181818;stroke-width:1.0;"/><line style="stroke:#181818;stroke-width:1.0;" x1="275.3877" x2="521.5923" y1="178.8594" y2="178.8594"/><text fill="#000000" font-family="sans-serif" font-size="13" lengthAdjust="spacing" textLength="228.2046" x="282.3877" y="173.7935">triggerRetrainAfterDeletion(userId)</text><polygon fill="#181818" points="1266.5332,203.9922,1276.5332,207.9922,1266.5332,211.9922,1270.5332,207.9922" style="stroke:#181818;stroke-width:1.0;"/><line style="stroke:#181818;stroke-width:1.0;" x1="527.5923" x2="1272.5332" y1="207.9922" y2="207.9922"/><text fill="#000000" font-family="sans-serif" font-size="13" lengthAdjust="spacing" textLength="160.9067" x="534.5923" y="202.9263">removeUserData(userId)</text><line style="stroke:#181818;stroke-width:1.0;" x1="527.5923" x2="569.5923" y1="237.125" y2="237.125"/><line style="stroke:#181818;stroke-width:1.0;" x1="569.5923" x2="569.5923" y1="237.125" y2="250.125"/><line style="stroke:#181818;stroke-width:1.0;" x1="528.5923" x2="569.5923" y1="250.125" y2="250.125"/><polygon fill="#181818" points="538.5923,246.125,528.5923,250.125,538.5923,254.125,534.5923,250.125" style="stroke:#181818;stroke-width:1.0;"/><text fill="#000000" font-family="sans-serif" font-size="13" lengthAdjust="spacing" textLength="197.7422" x="534.5923" y="232.0591">retrainModel(updatedDataset)</text><polygon fill="#181818" points="835.0361,275.2578,845.0361,279.2578,835.0361,283.2578,839.0361,279.2578" style="stroke:#181818;stroke-width:1.0;"/><line style="stroke:#181818;stroke-width:1.0;" x1="527.5923" x2="841.0361" y1="279.2578" y2="279.2578"/><text fill="#000000" font-family="sans-serif" font-size="13" lengthAdjust="spacing" textLength="97.8174" x="534.5923" y="274.1919">saveNewModel</text><polygon fill="#181818" points="538.5923,304.3906,528.5923,308.3906,538.5923,312.3906,534.5923,308.3906" style="stroke:#181818;stroke-width:1.0;"/><line style="stroke:#181818;stroke-width:1.0;stroke-dasharray:2.0,2.0;" x1="532.5923" x2="846.0361" y1="308.3906" y2="308.3906"/><text fill="#000000" font-family="sans-serif" font-size="13" lengthAdjust="spacing" textLength="80.6406" x="544.5923" y="303.3247">modelSaved</text><polygon fill="#181818" points="982.1616,333.5234,992.1616,337.5234,982.1616,341.5234,986.1616,337.5234" style="stroke:#181818;stroke-width:1.0;"/><line style="stroke:#181818;stroke-width:1.0;" x1="527.5923" x2="988.1616" y1="337.5234" y2="337.5234"/><text fill="#000000" font-family="sans-serif" font-size="13" lengthAdjust="spacing" textLength="111.1475" x="534.5923" y="332.4575">deployNewModel</text><polygon fill="#181818" points="1152.7671,362.6563,1162.7671,366.6563,1152.7671,370.6563,1156.7671,366.6563" style="stroke:#181818;stroke-width:1.0;"/><line style="stroke:#181818;stroke-width:1.0;" x1="994.1616" x2="1158.7671" y1="366.6563" y2="366.6563"/><text fill="#000000" font-family="sans-serif" font-size="13" lengthAdjust="spacing" textLength="146.6055" x="1001.1616" y="361.5903">updateDeployedModel</text><polygon fill="#181818" points="1005.1616,391.7891,995.1616,395.7891,1005.1616,399.7891,1001.1616,395.7891" style="stroke:#181818;stroke-width:1.0;"/><line style="stroke:#181818;stroke-width:1.0;stroke-dasharray:2.0,2.0;" x1="999.1616" x2="1163.7671" y1="395.7891" y2="395.7891"/><text fill="#000000" font-family="sans-serif" font-size="13" lengthAdjust="spacing" textLength="145.4756" x="1011.1616" y="390.7231">deploymentConfirmed</text><polygon fill="#181818" points="538.5923,420.9219,528.5923,424.9219,538.5923,428.9219,534.5923,424.9219" style="stroke:#181818;stroke-width:1.0;"/><line style="stroke:#181818;stroke-width:1.0;stroke-dasharray:2.0,2.0;" x1="532.5923" x2="993.1616" y1="424.9219" y2="424.9219"/><text fill="#000000" font-family="sans-serif" font-size="13" lengthAdjust="spacing" textLength="130.0889" x="544.5923" y="419.856">deploymentSuccess</text><polygon fill="#181818" points="41.4321,450.0547,31.4321,454.0547,41.4321,458.0547,37.4321,454.0547" style="stroke:#181818;stroke-width:1.0;"/><line style="stroke:#181818;stroke-width:1.0;stroke-dasharray:2.0,2.0;" x1="35.4321" x2="274.3877" y1="454.0547" y2="454.0547"/><text fill="#000000" font-family="sans-serif" font-size="13" lengthAdjust="spacing" textLength="79.3203" x="47.4321" y="448.9888">userDeleted</text><!--SRC=[TLBBReCm4BpxArQSqaD-W4Ebg5mgfKqLr0zmx0rQ5ODhBwdozxLD28-GcpNipEpCmiGrGec_7JOAeI1PEMbW2mNMoFZjqGaX5RSETjfG8wnqJ8giR1XsrjQa95CxnxEF_S5w-2ABDJMOWVIGe04HMh8yIO-G5U45U_c3sKAYrLZ34IloxAwzH8G6P3vTeAtRgy7mBj5TIFMc8tn3rrYeU-NHGuYK5RQlquWv-EvaYCTcZh4spviklD_rYvWCH-uiSWxigAeYYPsaPdTcT4agJDyLPfIe4Uk9xUJWqBINP1knvuo5g-ljKgvDPqFngAE0HruZJoiEWUK5F_6lBsNs3RQFLYOEb86YLt8iBv63Jj1T_c7YlayE_Tx3kIRhf3MUQaVehMtEv4pOQSNWCSD8B3kbqFlvKUCV4N-Di9A_dG_rFm00]--></g></svg>